<?xml version="1.0" encoding="iso-8859-1"?>
<!-- Generator: Adobe Illustrator 19.0.0, SVG Export Plug-In . SVG Version: 6.00 Build 0)  -->
<svg xmlns="http://www.w3.org/2000/svg" xmlns:xlink="http://www.w3.org/1999/xlink" version="1.1" id="Layer_1" x="0px" y="0px" viewBox="0 0 512 512" style="enable-background:new 0 0 512 512;" xml:space="preserve" width="512px" height="512px">
<g>
	<g>
		<path d="M428.29,59.928h-92.703V29.135c0-4.271-3.461-7.731-7.731-7.731h-38.011V7.731c0-4.271-3.461-7.731-7.731-7.731h-63.414    c-4.27,0-7.731,3.46-7.731,7.731v13.673h-32.247c-4.27,0-7.731,3.46-7.731,7.731v30.793H83.71c-4.27,0-7.731,3.46-7.731,7.731    v32.105c0,4.271,3.461,7.731,7.731,7.731s7.731-3.46,7.731-7.731V75.39h79.549v24.371c0,4.271,3.461,7.731,7.731,7.731h149.134    c4.27,0,7.731-3.46,7.731-7.731V75.39h84.972v421.149H91.441V134.61c0-4.271-3.461-7.731-7.731-7.731s-7.731,3.46-7.731,7.731    v369.659c0,4.271,3.461,7.731,7.731,7.731h344.58c4.27,0,7.731-3.46,7.731-7.731V67.659    C436.021,63.388,432.559,59.928,428.29,59.928z M226.431,15.462h47.952v5.942h-47.952V15.462z M320.125,92.03H186.454V36.866    H218.7h63.414h38.011V92.03z" fill="#FFFFFF"/>
	</g>
</g>
<g>
	<g>
		<path d="M375.747,167.931H209.041c-4.27,0-7.731,3.46-7.731,7.731s3.461,7.731,7.731,7.731h166.706c4.27,0,7.731-3.46,7.731-7.731    S380.016,167.931,375.747,167.931z" fill="#FFFFFF"/>
	</g>
</g>
<g>
	<g>
		<path d="M375.747,252.758H209.041c-4.27,0-7.731,3.46-7.731,7.731s3.461,7.731,7.731,7.731h166.706c4.27,0,7.731-3.46,7.731-7.731    S380.016,252.758,375.747,252.758z" fill="#FFFFFF"/>
	</g>
</g>
<g>
	<g>
		<path d="M375.747,337.584H209.041c-4.27,0-7.731,3.46-7.731,7.731s3.461,7.731,7.731,7.731h166.706c4.27,0,7.731-3.46,7.731-7.731    S380.016,337.584,375.747,337.584z" fill="#FFFFFF"/>
	</g>
</g>
<g>
	<g>
		<path d="M375.747,422.411H209.041c-4.27,0-7.731,3.46-7.731,7.731s3.461,7.731,7.731,7.731h166.706c4.27,0,7.731-3.46,7.731-7.731    S380.016,422.411,375.747,422.411z" fill="#FFFFFF"/>
	</g>
</g>
<g>
	<g>
		<path d="M176.962,147.499H134.23c-4.27,0-7.731,3.46-7.731,7.731v1.07v41.661v1.07c0,4.271,3.461,7.731,7.731,7.731h42.732    c4.27,0,7.731-3.46,7.731-7.731v-1.07V156.3v-1.07C184.693,150.959,181.232,147.499,176.962,147.499z M169.231,190.23h-27.27    v-26.199h27.27V190.23z" fill="#FFFFFF"/>
	</g>
</g>
<g>
	<g>
		<path d="M176.962,234.179H134.23c-4.27,0-7.731,3.46-7.731,7.731v42.731c0,4.271,3.461,7.731,7.731,7.731h42.732    c4.27,0,7.731-3.46,7.731-7.731V241.91C184.693,237.64,181.232,234.179,176.962,234.179z M169.231,276.91h-27.27v-27.269h27.27    V276.91z" fill="#FFFFFF"/>
	</g>
</g>
<g>
	<g>
		<path d="M176.962,318.718H134.23c-4.27,0-7.731,3.46-7.731,7.731v42.732c0,4.271,3.461,7.731,7.731,7.731h42.732    c4.27,0,7.731-3.46,7.731-7.731v-42.732C184.693,322.178,181.232,318.718,176.962,318.718z M169.231,361.45h-27.27v-27.27h27.27    V361.45z" fill="#FFFFFF"/>
	</g>
</g>
<g>
	<g>
		<path d="M176.962,404.328H134.23c-4.27,0-7.731,3.46-7.731,7.731v42.731c0,4.271,3.461,7.731,7.731,7.731h42.732    c4.27,0,7.731-3.46,7.731-7.731v-42.731C184.693,407.789,181.232,404.328,176.962,404.328z M169.231,447.059h-27.27V419.79h27.27    V447.059z" fill="#FFFFFF"/>
	</g>
</g>
<g>
</g>
<g>
</g>
<g>
</g>
<g>
</g>
<g>
</g>
<g>
</g>
<g>
</g>
<g>
</g>
<g>
</g>
<g>
</g>
<g>
</g>
<g>
</g>
<g>
</g>
<g>
</g>
<g>
</g>
</svg>
