<svg width="2270.2702702702704" height="1135.1351351351352" xmlns="http://www.w3.org/2000/svg" xmlns:xlink="http://www.w3.org/1999/xlink">
 <defs>
  <path d="m129.25,122.075625l38.825625,-38.825625l9.924375,0l0,-11.25l-11.25,0l0,9.924375l-38.825625,38.825625l-9.924375,0l0,11.25l11.25,0l0,-9.924375zm39.375,-48.200625l7.5,0l0,7.5l-7.5,0l0,-7.5zm-41.25,56.25l-7.5,0l0,-7.5l7.5,0l0,7.5z" id="L1_262" fill="#273c6b"/>
  <path d="m1.25,264.075625l38.825625,-38.825625l9.924375,0l0,-11.25l-11.25,0l0,9.924375l-38.825625,38.825625l-9.924375,0l0,11.25l11.25,0l0,-9.924375zm39.375,-48.200625l7.5,0l0,7.5l-7.5,0l0,-7.5zm-41.25,56.25l-7.5,0l0,-7.5l7.5,0l0,7.5z" id="L1_263" fill="#273c6b"/>
  <path d="m239.25,22.075625l38.825625,-38.825625l9.924375,0l0,-11.25l-11.25,0l0,9.924375l-38.825625,38.825625l-9.924375,0l0,11.25l11.25,0l0,-9.924375zm39.375,-48.200625l7.5,0l0,7.5l-7.5,0l0,-7.5zm-41.25,56.25l-7.5,0l0,-7.5l7.5,0l0,7.5z" id="L1_264" fill="#273c6b"/>
  <path d="m79.25,317.075625l38.825625,-38.825625l9.924375,0l0,-11.25l-11.25,0l0,9.924375l-38.825625,38.825625l-9.924375,0l0,11.25l11.25,0l0,-9.924375zm39.375,-48.200625l7.5,0l0,7.5l-7.5,0l0,-7.5zm-41.25,56.25l-7.5,0l0,-7.5l7.5,0l0,7.5z" fill="#273c6b" id="svg_1"/>
  <path d="m183.25,161.075625l38.825625,-38.825625l9.924375,0l0,-11.25l-11.25,0l0,9.924375l-38.825625,38.825625l-9.924375,0l0,11.25l11.25,0l0,-9.924375zm39.375,-48.200625l7.5,0l0,7.5l-7.5,0l0,-7.5zm-41.25,56.25l-7.5,0l0,-7.5l7.5,0l0,7.5z" fill="#273c6b" id="svg_2"/>
  <path d="m273.25,29.075625l38.825625,-38.825625l9.924375,0l0,-11.25l-11.25,0l0,9.924375l-38.825625,38.825625l-9.924375,0l0,11.25l11.25,0l0,-9.924375zm39.375,-48.200625l7.5,0l0,7.5l-7.5,0l0,-7.5zm-41.25,56.25l-7.5,0l0,-7.5l7.5,0l0,7.5z" fill="#273c6b" id="svg_3"/>
  <pattern id="pattern_L1_262" width="350" height="350" patternUnits="userSpaceOnUse">
   <use xlink:href="#L1_262" x="-350" y="-350" id="svg_4"/>
   <use xlink:href="#L1_262" x="0" y="-350" id="svg_5"/>
   <use xlink:href="#L1_262" x="350" y="-350" id="svg_6"/>
   <use xlink:href="#L1_262" x="-350" y="0" id="svg_7"/>
   <use xlink:href="#L1_262" x="0" y="0" id="svg_8"/>
   <use xlink:href="#L1_262" x="350" y="0" id="svg_9"/>
   <use xlink:href="#L1_262" x="-350" y="350" id="svg_10"/>
   <use xlink:href="#L1_262" x="0" y="350" id="svg_11"/>
   <use xlink:href="#L1_262" x="350" y="350" id="svg_12"/>
  </pattern>
  <pattern id="pattern_L1_263" width="350" height="350" patternUnits="userSpaceOnUse">
   <use xlink:href="#L1_263" x="-350" y="-350" id="svg_13"/>
   <use xlink:href="#L1_263" x="0" y="-350" id="svg_14"/>
   <use xlink:href="#L1_263" x="350" y="-350" id="svg_15"/>
   <use xlink:href="#L1_263" x="-350" y="0" id="svg_16"/>
   <use xlink:href="#L1_263" x="0" y="0" id="svg_17"/>
   <use xlink:href="#L1_263" x="350" y="0" id="svg_18"/>
   <use xlink:href="#L1_263" x="-350" y="350" id="svg_19"/>
   <use xlink:href="#L1_263" x="0" y="350" id="svg_20"/>
   <use xlink:href="#L1_263" x="350" y="350" id="svg_21"/>
  </pattern>
  <pattern id="pattern_L1_264" width="350" height="350" patternUnits="userSpaceOnUse">
   <use xlink:href="#L1_264" x="-350" y="-350" id="svg_22"/>
   <use xlink:href="#L1_264" x="0" y="-350" id="svg_23"/>
   <use xlink:href="#L1_264" x="350" y="-350" id="svg_24"/>
   <use xlink:href="#L1_264" x="-350" y="0" id="svg_25"/>
   <use xlink:href="#L1_264" x="0" y="0" id="svg_26"/>
   <use xlink:href="#L1_264" x="350" y="0" id="svg_27"/>
   <use xlink:href="#L1_264" x="-350" y="350" id="svg_28"/>
   <use xlink:href="#L1_264" x="0" y="350" id="svg_29"/>
   <use xlink:href="#L1_264" x="350" y="350" id="svg_30"/>
  </pattern>
  <pattern id="pattern_UNKNOWN" width="350" height="350" patternUnits="userSpaceOnUse">
   <use xlink:href="#UNKNOWN" x="-350" y="-350" id="svg_31"/>
   <use xlink:href="#UNKNOWN" x="0" y="-350" id="svg_32"/>
   <use xlink:href="#UNKNOWN" x="350" y="-350" id="svg_33"/>
   <use xlink:href="#UNKNOWN" x="-350" y="0" id="svg_34"/>
   <use xlink:href="#UNKNOWN" x="0" y="0" id="svg_35"/>
   <use xlink:href="#UNKNOWN" x="350" y="0" id="svg_36"/>
   <use xlink:href="#UNKNOWN" x="-350" y="350" id="svg_37"/>
   <use xlink:href="#UNKNOWN" x="0" y="350" id="svg_38"/>
   <use xlink:href="#UNKNOWN" x="350" y="350" id="svg_39"/>
  </pattern>
  <pattern id="pattern_UNKNOWN" width="350" height="350" patternUnits="userSpaceOnUse">
   <use xlink:href="#UNKNOWN" x="-350" y="-350" id="svg_40"/>
   <use xlink:href="#UNKNOWN" x="0" y="-350" id="svg_41"/>
   <use xlink:href="#UNKNOWN" x="350" y="-350" id="svg_42"/>
   <use xlink:href="#UNKNOWN" x="-350" y="0" id="svg_43"/>
   <use xlink:href="#UNKNOWN" x="0" y="0" id="svg_44"/>
   <use xlink:href="#UNKNOWN" x="350" y="0" id="svg_45"/>
   <use xlink:href="#UNKNOWN" x="-350" y="350" id="svg_46"/>
   <use xlink:href="#UNKNOWN" x="0" y="350" id="svg_47"/>
   <use xlink:href="#UNKNOWN" x="350" y="350" id="svg_48"/>
  </pattern>
  <pattern id="pattern_UNKNOWN" width="350" height="350" patternUnits="userSpaceOnUse">
   <use xlink:href="#UNKNOWN" x="-350" y="-350" id="svg_49"/>
   <use xlink:href="#UNKNOWN" x="0" y="-350" id="svg_50"/>
   <use xlink:href="#UNKNOWN" x="350" y="-350" id="svg_51"/>
   <use xlink:href="#UNKNOWN" x="-350" y="0" id="svg_52"/>
   <use xlink:href="#UNKNOWN" x="0" y="0" id="svg_53"/>
   <use xlink:href="#UNKNOWN" x="350" y="0" id="svg_54"/>
   <use xlink:href="#UNKNOWN" x="-350" y="350" id="svg_55"/>
   <use xlink:href="#UNKNOWN" x="0" y="350" id="svg_56"/>
   <use xlink:href="#UNKNOWN" x="350" y="350" id="svg_57"/>
  </pattern>
 </defs>
 <g>
  <title>background</title>
  <rect x="-1" y="-1" width="2272.27027" height="1137.135135" id="canvas_background" fill="none"/>
 </g>
 <g>
  <title>Layer 1</title>
  <rect x="0px" y="0px" width="100%" height="100%" fill="#ffffff" id="svg_58"/>
  <g id="svg_59">
   <rect x="0" y="0" width="100%" height="100%" fill="url(#pattern_L1_262)" id="svg_60"/>
  </g>
  <g id="svg_61">
   <rect x="0" y="0" width="100%" height="100%" fill="url(#pattern_L1_263)" id="svg_62"/>
  </g>
  <g id="svg_63" stroke="null">
   <rect x="220" y="0" width="2270.27027" height="1135.135135" fill="url(#pattern_L1_264)" id="svg_64" stroke="null"/>
  </g>
  <g transform="matrix(1,0,0,1,20,20) " id="svg_65">
   <rect x="-619" y="-362" width="2270.27027" height="1135.135135" fill="url(#pattern_UNKNOWN)" id="svg_66"/>
  </g>
  <g transform="matrix(1,0,0,1,40,40) " id="svg_67">
   <rect x="-474" y="20" width="2270.27027" height="1135.135135" fill="url(#pattern_UNKNOWN)" id="svg_68"/>
  </g>
  <g transform="matrix(1,0,0,1,60,60) " id="svg_69">
   <rect x="-816" y="-463" width="2270.27027" height="1135.135135" fill="url(#pattern_UNKNOWN)" id="svg_70"/>
  </g>
  <rect stroke="#000" fill="#ffffff" stroke-width="0" x="-206.988526" y="-377.665181" width="2411" height="1712.534624" id="svg_71" transform="rotate(-47 998.5114746093751,478.6021423339844) "/>
  <rect fill="#ffffff" stroke="#000" stroke-width="0" stroke-opacity="null" fill-opacity="null" opacity="0.5" x="2187" y="1089" width="1" height="1" id="svg_72"/>
  <rect fill="#ffffff" stroke="#000" stroke-width="0" stroke-opacity="null" fill-opacity="null" x="2220" y="1108" width="65" height="37" id="svg_73"/>
 </g>
</svg>