<svg width="3508" height="671" xmlns="http://www.w3.org/2000/svg" preserveAspectRatio="xMidYMid meet">
 <metadata>Created by potrace 1.15, written by Peter Selinger 2001-2017</metadata>

 <g>
  <title>background</title>
  <rect fill="none" id="canvas_background" height="402" width="582" y="-1" x="-1"/>
 </g>
 <g>
  <title>Layer 1</title>
  <g id="svg_1" fill="#000000" transform="translate(0,671) scale(0.10000000149011612,-0.10000000149011612) ">
   <path fill="#273d6c" id="svg_2" d="m23333,5635c-27,-16 -49,-40 -62,-68l-21,-43l0,-2125l0,-2125l25,-51c27,-54 44,-64 125,-83c30,-6 1827,-10 5274,-10l5228,0l40,22c22,13 51,41 64,64l24,41l0,438l0,438l-24,41c-13,23 -42,51 -64,64l-40,22l-4715,0l-4715,0l-63,33c-54,27 -67,40 -91,86l-28,53l0,1022l0,1021l30,52c24,42 40,57 91,82l62,31l4715,0l4714,0l40,22c22,13 51,41 64,64l24,41l0,383l0,383l-24,41c-13,23 -42,51 -64,64l-40,22l-5263,0l-5264,0l-42,-25z"/>
   <path fill="#273d6c" id="svg_3" d="m1157,5635c-48,-17 -85,-50 -103,-92c-21,-48 -21,-2508 0,-2556c17,-42 66,-83 114,-97c25,-7 1549,-10 4783,-10c5265,0 4818,6 4877,-66c43,-52 52,-96 52,-259c0,-167 -11,-202 -79,-249c-87,-60 288,-56 -4876,-56c-3216,0 -4732,-3 -4757,-10c-48,-14 -97,-55 -114,-97c-20,-47 -20,-859 0,-906c17,-42 66,-83 114,-97c52,-14 10562,-14 10614,0c48,14 97,55 114,97c21,48 21,2508 0,2556c-17,42 -66,83 -114,97c-25,7 -1558,10 -4810,10c-4058,0 -4778,2 -4806,14c-38,16 -78,64 -95,115c-15,46 -15,426 0,472c17,51 57,99 95,115c28,12 1478,14 9842,14l9809,0l61,-31c47,-23 68,-41 87,-73l25,-43l0,-1043l0,-1043l-24,-42c-16,-27 -42,-50 -74,-68l-50,-27l-4257,0l-4257,0l-50,27c-32,18 -58,41 -74,68l-24,42l0,682c0,553 -3,688 -14,714c-17,42 -66,83 -114,97c-50,13 -714,13 -764,0c-48,-14 -97,-55 -114,-97c-21,-48 -21,-2508 0,-2556c17,-42 66,-83 114,-97c51,-14 10518,-14 10582,0c81,19 98,29 125,83l25,51l0,2116l0,2116l-25,51c-27,54 -44,64 -125,83c-30,6 -3690,9 -10860,9c-9135,0 -10821,-2 -10853,-14z"/>
  </g>
 </g>
</svg>